<svg viewBox="0 0 800 1600" xmlns="http://www.w3.org/2000/svg" preserveAspectRatio="xMidYMin slice">
  <defs>
    <linearGradient id="sky" x1="0%" y1="0%" x2="0%" y2="100%">
      <stop offset="0%" stop-color="#fdd7e4" />
      <stop offset="45%" stop-color="#fee9f0" />
      <stop offset="100%" stop-color="#fff7f0" />
    </linearGradient>
    <linearGradient id="fuji" x1="0%" y1="0%" x2="0%" y2="100%">
      <stop offset="0%" stop-color="#8d9bc0" />
      <stop offset="100%" stop-color="#aab6d4" />
    </linearGradient>
  </defs>

  <rect width="800" height="1600" fill="url(#sky)" />
  <circle cx="400" cy="300" r="90" fill="#ffb3c8" opacity="0.75" />

  <!-- núi Phú Sĩ -->
  <path d="M120,760 L400,340 L680,760 Z" fill="url(#fuji)" />
  <path d="M400,340 L472,448 C450,470 430,452 400,470 C370,452 350,470 328,448 Z" fill="#ffffff" />

  <!-- cổng torii kiểu anime -->
  <g fill="#d9455f">
    <rect x="330" y="880" width="22" height="190" rx="6" />
    <rect x="448" y="880" width="22" height="190" rx="6" />
    <rect x="300" y="856" width="200" height="26" rx="12" />
    <rect x="318" y="906" width="164" height="18" rx="9" />
  </g>

  <!-- cành hoa anh đào góc trên -->
  <g fill="#8a5a44">
    <path d="M0,120 Q160,160 260,120 L266,136 Q166,178 0,140 Z" />
    <path d="M800,60 Q660,110 560,90 L556,106 Q662,130 800,84 Z" />
  </g>
  <g fill="#f9a8c1">
    <circle cx="90" cy="120" r="22" />
    <circle cx="150" cy="140" r="18" />
    <circle cx="215" cy="122" r="20" />
    <circle cx="262" cy="130" r="14" />
    <circle cx="600" cy="86" r="20" />
    <circle cx="660" cy="76" r="16" />
    <circle cx="716" cy="66" r="20" />
  </g>
  <g fill="#fcc4d6">
    <circle cx="118" cy="108" r="12" />
    <circle cx="188" cy="130" r="11" />
    <circle cx="240" cy="112" r="10" />
    <circle cx="632" cy="70" r="11" />
    <circle cx="692" cy="60" r="10" />
  </g>

  <!-- cánh hoa rơi rải rác -->
  <g fill="#f9a8c1" opacity="0.85">
    <ellipse cx="140" cy="420" rx="9" ry="5" transform="rotate(-25 140 420)" />
    <ellipse cx="660" cy="380" rx="9" ry="5" transform="rotate(20 660 380)" />
    <ellipse cx="240" cy="620" rx="8" ry="4.5" transform="rotate(35 240 620)" />
    <ellipse cx="580" cy="640" rx="8" ry="4.5" transform="rotate(-30 580 640)" />
    <ellipse cx="120" cy="900" rx="9" ry="5" transform="rotate(15 120 900)" />
    <ellipse cx="700" cy="960" rx="9" ry="5" transform="rotate(-18 700 960)" />
    <ellipse cx="300" cy="1150" rx="8" ry="4.5" transform="rotate(28 300 1150)" />
    <ellipse cx="520" cy="1240" rx="8" ry="4.5" transform="rotate(-22 520 1240)" />
    <ellipse cx="180" cy="1380" rx="9" ry="5" transform="rotate(-12 180 1380)" />
    <ellipse cx="640" cy="1440" rx="9" ry="5" transform="rotate(24 640 1440)" />
  </g>

  <!-- thảm cỏ hồng nhạt -->
  <path d="M0,1060 Q200,1010 400,1060 T800,1050 L800,1600 L0,1600 Z" fill="#f6d8de" />
  <path d="M0,1180 Q260,1130 520,1180 T800,1170 L800,1600 L0,1600 Z" fill="#f0c3cf" opacity="0.8" />
</svg>
